<?xml version="1.0" encoding="UTF-8"?>
<svg xmlns="http://www.w3.org/2000/svg" xmlns:xlink="http://www.w3.org/1999/xlink" viewBox="0 0 4096 4096">
  <defs>
    <style>
      .cls-1 {
        fill: url(#_Безымянный_градиент_81);
      }

      .cls-1, .cls-2, .cls-3, .cls-4, .cls-5, .cls-6 {
        fill-rule: evenodd;
      }

      .cls-7 {
        fill: #fff;
      }

      .cls-2 {
        fill: url(#_Новый_образец_градиентной_залив-5);
      }

      .cls-8 {
        fill: url(#_Безымянный_градиент_83);
      }

      .cls-3 {
        fill: url(#_Новый_образец_градиентной_залив);
      }

      .cls-4 {
        fill: url(#_Новый_образец_градиентной_залив-4);
      }

      .cls-5 {
        fill: url(#_Новый_образец_градиентной_залив-2);
      }

      .cls-6 {
        fill: url(#_Новый_образец_градиентной_залив-3);
      }

      .cls-9 {
        fill: #02223b;
      }
    </style>
    <linearGradient id="_Новый_образец_градиентной_залив" data-name="Новый образец градиентной залив" x1="2757.49" y1="316.05" x2="2784.24" y2="342.8" gradientUnits="userSpaceOnUse">
      <stop offset="0" stop-color="#10bbc5"/>
      <stop offset=".5" stop-color="#0c5671"/>
      <stop offset="1" stop-color="#03273d"/>
    </linearGradient>
    <linearGradient id="_Безымянный_градиент_83" data-name="Безымянный градиент 83" x1="1469.54" y1="737.5" x2="2313.83" y2="1581.8" gradientUnits="userSpaceOnUse">
      <stop offset="0" stop-color="#10bbc5"/>
      <stop offset=".5" stop-color="#0c5671"/>
      <stop offset="1" stop-color="#03273d"/>
    </linearGradient>
    <linearGradient id="_Новый_образец_градиентной_залив-2" data-name="Новый образец градиентной залив" x1="2924.46" y1="699.69" x2="2990.4" y2="765.63" xlink:href="#_Новый_образец_градиентной_залив"/>
    <linearGradient id="_Безымянный_градиент_81" data-name="Безымянный градиент 81" x1="1119.85" y1="879.66" x2="2021.73" y2="1781.54" gradientUnits="userSpaceOnUse">
      <stop offset="0" stop-color="#10bbc5"/>
      <stop offset=".5" stop-color="#0c5671"/>
    </linearGradient>
    <linearGradient id="_Новый_образец_градиентной_залив-3" data-name="Новый образец градиентной залив" x1="2222.06" y1="1689.59" x2="3002.89" y2="2470.42" xlink:href="#_Новый_образец_градиентной_залив"/>
    <linearGradient id="_Новый_образец_градиентной_залив-4" data-name="Новый образец градиентной залив" x1="2671.95" y1="1124.2" x2="2684.81" y2="1137.06" xlink:href="#_Новый_образец_градиентной_залив"/>
    <linearGradient id="_Новый_образец_градиентной_залив-5" data-name="Новый образец градиентной залив" x1="1474.44" y1="1655.27" x2="2002.69" y2="2183.52" xlink:href="#_Новый_образец_градиентной_залив"/>
  </defs>
  <g id="_Слой_2" data-name="Слой 2">
    <rect class="cls-7" width="4096" height="4096"/>
  </g>
  <g id="_Слой_1" data-name="Слой 1">
    <g>
      <path class="cls-3" d="m2851.12,222.43c-43.31,50.14-87.48,99.48-132.5,148-15.73,15.73-30.4,32.4-44,50,.33.33.67.67,1,1,3.67-2.5,8.38-3.79,12.05-6.29,12.04-3.86,22.32-10.24,32.95-16.71,5.58-2.27,10.91-4.93,16-8"/>
      <path class="cls-8" d="m2785.62,232.93c-21.44,15.72-42.1,32.38-62,50-44.54,34.87-88.21,70.87-131,108-9.57,6.94-18.91,14.11-28,21.5-29.52,25.01-59.52,49.51-90,73.5-1.63,2.63-3.63,4.96-6,7-5.94,3.61-11.61,7.61-17,12-13.62,11.05-27.27,22.13-40.9,33.2-14,13.08-27.95,26.25-42.82,38.35-7.12,5.79-14.18,11.63-21.54,17.12-3.69,2.75-7.25,5.7-11.12,8.19-2.53,1.63-5.15,3.1-7.56,4.86-2.27,1.99-4.8,4.1-7.33,5.11-4.93,2.4-5.69,2.28-12.72,2.18-12.41-5.68-22.86-8.28-35.11-13.93-1.63-.49-4.94-1.02-8.85-2.38-6.99-1.49-8.08-2.2-13.04-3.19.12-.61.46-.94,1-1,.25-2.17,1.25-3.84,3-5,.42-.51.86-1.01,1.29-1.51.08-1.03.59-2.06,1.66-2.96,6.71-5.59,11.82-12.58,18.79-17.95,7.76-5.98,14.96-12.64,22.25-19.17,6.96-6.23,14.38-11.71,21.54-17.66,5.44-4.52,9.46-10.37,14.64-15.1,37.79-51.36,75.72-102.58,113.82-153.65-.47-1.7-.47-3.2,0-4.5-1.58-.08-2.92-.25-4-.5,1.79-2.08,3.45-4.24,5-6.5-.59-.46-1.26-.63-2-.5-10.98,7.16-21.98,14.32-33,21.5-11.4,10.54-23.73,19.87-37,28-57.54,47.05-115.21,93.88-173,140.5-32.78,27.24-65.45,54.74-98,82.5-11.88,8.21-22.88,17.54-33,28-46.37,36.85-92.37,74.19-138,112-15.17,10.16-29.51,21.5-43,34-20.21,14.27-39.87,29.27-59,45-43.8,28.13-86.8,57.46-129,88-21.6,12.47-42.93,25.47-64,39-5.67,4.33-11.33,8.67-17,13-52.9,33.62-103.9,69.95-153,109-16.53,14.37-32.86,28.87-49,43.5-24.76,24.42-48.76,49.42-72,75-5.96,7.96-12.3,15.63-19,23-13.29,17.13-26.79,34.13-40.5,51-28.71,40.08-54.87,81.75-78.5,125-12.94,23.46-24.94,47.46-36,72-24.64,55.75-43.8,113.41-57.5,173-11.95,52.48-19.45,105.48-22.5,159-1.65,24.8-2.65,49.64-3,74.5-.02,16.54.65,33.04,2,49.5,1.35,21.88,3.01,43.88,5,66,1.39,9.84,2.73,19.84,4,30-.34,2.37-.84,4.7-1.5,7-15.56,26.65-27.22,54.98-35,85-.84,2.34-2.17,4.34-4,6-18.62-54.76-31.79-110.76-39.5-168-2.48-9.37-3.82-19.03-4-29-1.39-4.77-2.06-9.77-2-15-2.08-34.31-3.75-68.64-5-103,.97-35.11,3.3-70.11,7-105,.29-7.9,1.29-15.57,3-23,18.39-126.36,59.89-244.36,124.5-354,36.26-58.5,76.93-113.83,122-166,58.32-65.85,121.49-126.35,189.5-181.5,10.84-8.58,22.17-16.42,34-23.5,5.21-4.52,10.55-9.02,16-13.5,20.54-13.2,40.54-27.2,60-42,28.4-16.57,56.4-33.74,84-51.5,9.38-5.02,18.72-10.02,28-15,3.09-2.72,6.42-5.22,10-7.5,21.78-12.22,43.44-24.38,65-36.5,18.25-12.54,36.92-24.54,56-36h1c14.51-9.6,29.51-18.77,45-27.5,22.85-17.17,46.51-33.17,71-48,10.98-8.49,22.32-16.49,34-24,3.86-3.1,7.52-6.43,11-10,15.33-10.67,30.67-21.33,46-32,10.65-8.32,20.98-16.99,31-26,.4-.26.79-.53,1.19-.79-45.6,2.78-90.75,9.84-136.1,15.99-25.14,3.41-50.3,6.79-75.24,11.46-24.87,4.66-49.35,11.1-73.78,17.65-46.83,12.56-93.58,26.52-139.06,43.39-21.88,8.12-43.43,17.25-64.02,28.27-13.46,7.21-26.54,15.21-39.37,23.55-1.18,1.24-3.07,2.38-6.13,4.4-6.8,4.31-6.42,4.84-14.49,9.58-4.04,3.15-2.1.84-4.04,3.15-.27-.55-2.68,1.56-3.68,1.91-17.92,12.34-35.59,25.02-53.4,37.51-7.19,5.04-14.45,9.96-21.73,14.86-28.23,22.07-55.62,45.25-82.15,69.56-12.1,10.93-24.1,22.1-36,33.5-1.51,2.44-.12.19-2,3.5-1.77,2.47-.86,1.17-2.45,3.51-2.29,2.48-1.24,1.21-3.55,3.49-2.7,2.53-2.61,2.43-5.22,4.76-1.66,1.21-.24.13-2.28,1.77-1.68,1.7-1.15,1.15-2.49,2.47-6.32,6.32-12.99,12.32-20,18-7.26,8.82-14.76,17.49-22.5,26-30.5,30.33-59.17,62.33-86,96-1.18,1.57-.78,1.09-2.41,2.79-1,1.33-2.19,2.61-3.19,3.94-20.29,25.62-41.84,50.24-62.89,75.28-5.12,7.2-7.36,9.4-15.15,19.74-6,7.02-6.62,8.52-9.35,12.26l-21,24c-23.36,30.19-46.86,60.19-70.5,90,0,.67-.33,1-1,1-.21,1.42-.71,2.76-1.5,4-38.24,49.48-73.74,100.82-106.5,154-6.41,11.83-13.08,23.5-20,35-3.08,6.5-5.91,13.17-8.5,20-10.12,46.06-17.95,92.4-23.5,139-1.19,22.34-2.69,44.67-4.5,67-.65,26.01-.48,52.01.5,78,1.44,10.13,2.11,20.47,2,31,1.91-.58,3.58-1.58,5-3,10.82-15,22.98-29,36.5-42,15.99-21.66,33.16-42.33,51.5-62,2.93-4.27,6.27-8.27,10-12,15.78-19.86,32.28-39.19,49.5-58,.17.5.33,1,.5,1.5-3.88,6.92-7.38,14.09-10.5,21.5-14.66,44.66-29.33,89.32-44,134-1.66,3.15-3.5,6.15-5.5,9,.15,1.05-.02,2.05-.5,3-4.25,6.16-8.25,12.5-12,19-7.15,6.81-13.15,14.47-18,23-18,21.49-36.83,42.16-56.5,62,7.94,45.89,17.11,91.56,27.5,137,11.79,42.52,25.13,84.52,40,126,27.84,67.78,60.84,133.11,99,196,69.1,106.13,152.26,200.29,249.5,282.5,2.4,2.15,4.56,1.98,6.5-.5,30.1-47.11,61.43-93.44,94-139,27.75-42.49,56.25-84.49,85.5-126-86.9-120.61-144.57-254.27-173-401-1.47-4.42-2.14-9.09-2-14-4.29-29.82-6.95-59.82-8-90-1.16-29.16-1.33-58.5-.5-88,4.36-92.19,23.86-180.86,58.5-266,2.63-8.58,6.29-16.58,11-24,9.76-22.86,20.6-45.2,32.5-67,46.36-79.71,103.2-151.21,170.5-214.5,16.83-14,33.5-28.17,50-42.5,4.74-4.55,10.07-8.38,16-11.5.76-1.51,1.76-2.85,3-4,6.67-5.33,13.33-10.67,20-16,7.37-3.68,14.03-8.35,20-14,25.67-16.5,51.67-32.5,78-48,20.95-9.81,41.61-20.14,62-31,13.46-5.48,26.79-11.15,40-17,6.56-2.44,13.23-4.61,20-6.5,20.87-8.42,42.2-15.76,64-22h1c6.73-2.8,13.73-5.3,21-7.5,11.62-2.32,23.28-4.49,35-6.5,11.75-4.69,24.08-7.35,37-8,4.56-1.48,9.23-2.98,14-4.5,35.15-6.58,70.48-11.75,106-15.5,5.12-1.31,10.45-1.97,16-2,10.24.07,20.24-1.43,30-4.5,7.4-4.24,14.07-9.4,20-15.5,11.21-10.04,22.88-19.54,35-28.5,47.04-42.04,94.37-83.71,142-125,21.71-20.38,44.05-40.05,67-59,19.77-19.77,40.77-38.1,63-55,22.3-21.14,45.3-41.31,69-60.5,3.46-3.96,7.13-7.8,11-11.5,16.83-14,33.5-28.17,50-42.5,6.1-5.6,12.1-11.44,18-17.5,16.25-14.75,32.91-28.92,50-42.5,12.93-11.82,25.93-23.65,39-35.5,45.85-37.84,90.52-77.18,134-118,11.76-8.93,172.55-225.68,182.79-236.41l-233.79,112.41Z"/>
    </g>
    <path class="cls-5" d="m3174.26,520.47c-2.92,4.93-23.56,33.33-27.31,37.73-23.23,28.78-46.23,57.78-69,87-8.59,10.44-17.43,20.77-26.5,31-4.19,5.73-8.35,11.39-12.5,17-18.39,20.05-36.05,40.72-53,62-11.15,12.26-22.32,24.59-33.5,37-2.42,3.84-5.09,7.51-8,11-19.3,21.63-38.97,42.97-59,64-12.06,15.07-25.23,29.24-39.5,42.5-1.58,1.09-3.24,1.93-5,2.5-41.53.35-83.03,1.68-124.5,4-2.61-.03-4.78-.7-6.5-2,40.72-36.21,81.39-72.71,122-109.5,62.96-54.63,125.63-109.63,188-165,14.67-12,29.33-24,44-36,5.56-5.73,13.01-10.18,18.78-15.45,24.18-18.25,67.05-50.04,91.53-67.79"/>
    <path class="cls-1" d="m1543.05,598.46c-12.59,3.86-24.95,8.45-37.19,13.29-11.66,4.61-23.21,9.13-35.04,13.23-2.84,1.23-5.74,2.37-8.69,3.4-7.33,3.45-14.28,8.07-21.96,10.37-24.41,13.31-48.82,26.63-73.23,39.94-52.55,33.21-102.88,69.54-151,109-43.83,39.33-85.83,80.5-126,123.5-10.62,13.12-21.78,25.78-33.5,38-14.61,19.55-29.95,38.55-46,57-23.34,31.38-46.18,63.05-68.5,95-2.45,3.65-4.28,7.65-5.5,12-21,31.68-40.17,64.34-57.5,98-9.22,18.77-18.72,37.44-28.5,56-3.15,7.28-16.87,40.18-19.38,47.56,30.15-38.93,90.2-95.49,120.38-134.56,42-51.33,84-102.67,126-154,69.58-81.58,145.08-157.08,226.5-226.5,11.23-7.23,21.23-15.9,30-26,8.79-6.29,17.12-13.12,25-20.5,22.78-18.9,45.78-37.56,69-56,11.84-9,23.84-17.83,36-26.5,30.85-26.27,62.26-51.81,94.23-76.62-5.08,1.31-10.11,2.84-15.12,4.38Z"/>
    <path class="cls-6" d="m3222.95,1384.2c-1.42-2.01-2.09-4.35-2-7-.43-5.33-.93-10.67-1.5-16-19.06-93.32-47.39-183.66-85-271-1.53-4.35-4.03-8.02-7.5-11-29.12,27.29-58.12,54.79-87,82.5-41.95,41.28-83.95,82.61-126,124-1.79.78-3.29,1.95-4.5,3.5,1.94-10.94,4.1-21.94,6.5-33,3.03-21.1,6.53-42.1,10.5-63,5.95-8.78,12.78-16.78,20.5-24,18.96-19.47,38.13-38.8,57.5-58,18.3-20.91,37.3-41.24,57-61,21.03-21.03,42.03-42.03,63-63,22.07-25.14,89.12-102.18,110.72-127.71l-1.22,1.21c-17.69,13.36-90.35,69.19-108,82.5-10.56,9.62-21.56,18.79-33,27.5-1.67.67-3.33.67-5,0-6.04-8.57-11.71-17.41-17-26.5-13.47-18.73-27.8-36.9-43-54.5-1.54-1.19-3.21-1.52-5-1-16.96,22.74-33.79,45.58-50.5,68.5-21.1,25.76-41.43,52.1-61,79-36.38,45.38-72.38,91.05-108,137-21.81,25.63-43.14,51.63-64,78,6.52,65.3,13.02,130.64,19.5,196,1.31,5.12,1.97,10.45,2,16,2.68,45.96,3.52,91.96,2.5,138-1.02,42.92-4.68,85.58-11,128-6.72,12.43-13.72,24.77-21,37-22.22,44.77-45.22,89.11-69,133-17.61,27.94-35.61,55.6-54,83-27.37,37.39-55.7,74.06-85,110-40.37,45.05-82.21,88.88-125.5,131.5-73.8,69.15-151.13,133.82-232,194-10.37,9.38-21.04,18.38-32,27-8.66,4.83-17.66,8.83-27,12-48.97,15.24-98.97,25.41-150,30.5-3.09,1.28-6.42,1.95-10,2-10.21-.21-20.21.45-30,2-5.77,1.49-11.77,2.32-18,2.5-10.67.33-21.33.67-32,1-.97,1.48-2.3,2.31-4,2.5-8.79,6.95-17.46,14.12-26,21.5-47.09,44.43-95.43,87.43-145,129l-18,18c-24.79,20.4-48.79,41.74-72,64-25.42,20.72-50.08,42.39-74,65-8.98,5.65-16.65,12.65-23,21,4.41,3.03,9.08,5.7,14,8,20.51,7.28,40.84,14.95,61,23,93.71,32.96,190.04,55.46,289,67.5,5.55.03,10.88.69,16,2,11.36.58,22.69,1.58,34,3,7.58-.41,14.91.26,22,2,27.66.79,55.33,1.45,83,2,29.32-1,58.65-1.83,88-2.5,17.63-1.66,35.29-2.99,53-4,22.32-2.92,44.66-5.92,67-9,21.58-4.32,43.25-8.32,65-12,133.62-27.19,258.96-75.19,376-144,142.19-88.6,263.35-200.44,363.5-335.5,1.24-1.38,1.41-2.71.5-4-24.14,15.24-48.14,30.74-72,46.5-20.72,15.06-41.72,29.72-63,44-76.12,56.56-153.12,111.89-231,166-17,11.17-34.33,21.83-52,32-1.74.65-3.4.48-5-.5-3.46-2.96-6.79-6.12-10-9.5-5.77-2.28-10.11-6.11-13-11.5,10.76-9.59,21.43-19.43,32-29.5,56.11-46.11,109.45-95.44,160-148,5.85-4.43,11.52-9.09,17-14,14.06-14.39,28.39-28.39,43-42,61.45-61.11,122.61-122.61,183.5-184.5,3.62-5.29,7.62-10.29,12-15,21.8-20.46,42.13-42.13,61-65,12.54-10.86,23.2-23.19,32-37,6.68-14.03,13.35-28.03,20-42,52.41-129.87,82.58-264.87,90.5-405,.28-15.51.95-30.84,2-46,2.51-89.84-4.49-178.84-21-267Zm-256.21,59.33c-3.73-11.65-7.54-23.32-9.37-35.44-2.06-13.66-1.09-25.53,7.21-36.99,8.04-11.1,18.24-20.65,27-31.18,10.36-12.44,19.67-25.57,28.66-39.02,16.44-24.6,37.02-47.48,47.18-75.69,1.93-5.35,9.46-4.39,9.82,1.33,1.47,23.17,1.67,46.45-.1,69.61-.92,12.01-6.13,39.27-10.22,59.6-2.69,22.35-6.21,44.78-4.94,67.19.16.89.32,1.78.48,2.69.73,4.06,1.07,8.1,1.12,12.16.66,4.29,1.37,8.57,2.05,12.86,2.67,11.95,6.31,24.91,10.88,39.79,2.53,11,4.55,22.11,6.17,33.28,2.09-2.84,3.92-5.91,5.81-8.72,3.58-5.33,7.64-10.09,11.96-14.83,9.95-10.94,20.25-21.62,29.2-33.42,9.34-12.32,18.79-24.56,27.51-37.32,7.54-11.02,12.81-23.6,21.07-34.07,2.2-2.79,7.85-1.35,8.36,2.21,4.56,32.26-2.36,65.19-9.99,96.46-14.79,60.56-49.57,96.28-73.98,153.8-12.58,29.64-27.43,58.59-40.91,87.83q-16.96,36.77-35.42,96.19c-.3.96-4.53,10.81-5.19,11.21q-27.24,106.14-47.02,157.99c-6.93,18.15-13.81,36.23-21.33,53.99-1.46,7.2-4.15,13.93-8.51,19.58-17.04,38.05-36.42,74.89-59.43,110.2-73.36,112.56-172.43,206.39-281.1,284.47-55.62,39.97-114.07,75.96-174.29,108.55-56.77,30.72-115.08,59.26-175.22,82.79-64.57,25.26-131.29,45.62-199.16,59.91-64.05,13.49-130.12,22.9-195.65,17.45-1.22.03-1.57-.03-2.21-.06-2.69-.15-8.17-.7-14.09-1.34-7.68-.92-4.64-.64-8.17-.85,2.13-2.55,4.46-5.49,5.83-7.02q5.29-5.9,9.32-9.4,2.47-2.18,3.06-2.68c11.67-9.92,45.35-29.24,59.42-35.27,152.45-65.36,200.78-85.79,311.69-132.77,115.4-48.88,228.26-100.18,317.36-190.3,24.57-24.85,60.4-54,84.09-79.66,45.32-49.1,51.5-55.43,78.64-89.53,11.63-14.61,22.29-81.18,32.17-97.02-27.06,11.23-43.91,22.47-66.38,39.32-17.19,12.89-42.59,40.85-57.19,56.63-48.99,52.94-90.51,113.19-148.95,156.65-62.63,46.57-130.28,88.35-205.64,110.69-5.8,1.72-8.47-6.65-3.72-9.21.04-.06.07-.12.11-.18,29.59-41.93,66.27-78.21,103.92-112.86,33.84-31.14,68.82-61.04,101.81-93.08,37.02-35.94,72.56-73.36,108.38-110.49,35.22-36.51,71.19-72.03,108.06-106.85,32.75-30.93,64.26-63.84,104.56-85.07,2.41-1.27,4.7-.45,6.12,1.14,24.16-49,46.68-98.82,67.91-149.16,10.1-23.95,20.26-47.95,29.91-72.15-.09-.99-.03-2.04.21-3.13.47-2.15,1.58-3.8,3.05-5.11,12.53-31.91,24.06-64.2,33.2-97.2m0,0c23.13-55.77,21.1-54.25,39.15-109.56,0-.04,10.89-45.48,5.72-58.93"/>
    <path class="cls-4" d="m2687.95,1129.2h3c.21,1.68-.45,2.68-2,3-7.96.23-15.96-.1-24-1h4c6.58.34,12.92-.32,19-2Z"/>
    <path class="cls-2" d="m1110.64,3029.67c92.18-125.33,255.34-349.42,342.16-478.76,80.67-116.01,160.33-232.67,239-350,45.75-66.51,91.75-132.84,138-199,14.82-19.65,29.16-39.65,43-60,.76-1.57.6-2.9-.5-4-120.84-1.3-241.84-1.3-363,0-11.21.11-22.21.11-33,0,9.58-13.48,19.41-26.82,29.5-40,35.43-40.86,69.43-82.86,102-126,74.81-91.66,148.64-184,221.5-277,19.61-24.95,39.61-49.62,60-74,2.81-3.6,5.65-7.26,8.5-11,3.24-3.87,6.37-8.66,5.5-13,.17-1.72-6.68,0-10,.5-43.97,8.53-88.3,14.7-133,18.5,45.56-56.6,92.39-112.6,140.5-168,5.84-7.7,13.89-14.74,19.71-22.38,9.56-11.73,17.52-23.69,28.29-34.62,8.29-11.59,17.29-22.59,27-33,6.26-8.71,13.09-16.88,20.5-24.5,6.41-.13,12.75-.8,19-2,216.67-.5,433.33-.67,650-.5,8.04.9,16.04,1.23,24,1-31.14,28.3-62.47,56.47-94,84.5-89.69,85.69-179.36,171.36-269,257-11.48,10.57-23.15,20.9-35,31-11.33,11.33-22.67,22.67-34,34-35.34,33.01-71.01,65.67-107,98-20.9,20.4-41.24,41.24-61,62.5,2.68-.02,5.35-.02,8,0,105.17,1.14,210.5,1.14,316,0,24.34,0,48.34.67,72,2-49.15,45.32-97.48,91.48-145,138.5-38.71,36.05-76.71,72.72-114,110-23.61,22.28-47.28,44.61-71,67-19.72,19.72-39.39,39.39-59,59-16.69,15.36-33.36,30.69-50,46l-86,86c-88.27,82.93-175.27,167.27-261,253-65.72,63.06-131.39,126.06-197,189l-61,61c-62.55,58.55-123.89,118.55-184,180-27.8,24.3-62.04,57.16-88.24,83.19"/>
    <g>
      <path class="cls-9" d="m960.63,3522.1h-48.54v-90.23h212.6c0,51.95-3.65,90.58-10.94,115.87-7.07,24.38-21.88,49.11-44.43,74.17-22.1,24.84-48.88,42.95-80.32,54.35s-65.17,17.09-101.17,17.09c-53.55,0-102.2-8.89-145.95-26.66-43.98-17.31-77.93-46.03-101.86-86.13-24.16-39.42-36.23-83.62-36.23-132.62,0-74.05,24.38-133.75,73.14-179.1,48.31-45.34,107.55-68.02,177.73-68.02,58.56,0,104.47,14.24,137.74,42.72v-33.15h114.5v166.11h-114.5c-10.03-20.51-23.07-36-39.14-46.48-16.06-10.48-34.81-15.72-56.23-15.72-30.08,0-52.18,9.8-66.31,29.39-13.9,19.6-20.85,55.6-20.85,108.01s7.29,87.62,21.88,106.3c14.81,18.92,36.34,28.37,64.6,28.37,42.84,0,64.26-21.42,64.26-64.26Z"/>
      <path class="cls-9" d="m1195.45,3446.9c0-39.65,9.68-78.04,29.05-115.19,19.14-36.91,48.88-68.02,89.21-93.31,14.36-8.89,29.11-15.95,44.26-21.19,15.15-5.24,31.62-9.28,49.39-12.13,17.77-2.85,36.45-4.27,56.05-4.27,85.22,0,151.19,24.95,197.9,74.85,23.24,24.61,40.79,51.27,52.64,79.98,11.85,28.71,17.77,59.13,17.77,91.26,0,66.31-24.16,123.96-72.46,172.95-48.31,48.99-113.59,73.49-195.85,73.49s-144.01-23.01-193.46-69.04c-49.68-45.8-74.51-104.93-74.51-177.39Zm206.45,0c0,52.87,5.13,88.53,15.38,106.98,9.79,18.69,25.18,28.03,46.14,28.03s36.23-9,46.48-27c10.25-18.23,15.38-54.23,15.38-108.01s-5.01-87.72-15.04-106.64c-9.8-18.68-25.41-28.03-46.83-28.03s-35.89,9-46.14,27c-10.25,18-15.38,53.89-15.38,107.67Z"/>
      <path class="cls-9" d="m2349.69,3476.3l123.39,43.41c-10.48,50.82-34.52,92.4-72.12,124.76-38.06,32.59-90.46,48.88-157.23,48.88-91.15,0-158.59-23.81-202.34-71.44-43.98-47.39-65.97-105.27-65.97-173.63s21.53-127.26,64.6-175.34c43.07-48.08,99-72.12,167.82-72.12,55.83,0,101.28,13.79,136.38,41.36v-31.79h114.16v173.63h-118.6c-6.15-21.65-16.52-38.74-31.1-51.27-14.58-12.3-31.22-18.46-49.9-18.46-51.5,0-77.25,44.32-77.25,132.96s26.66,133.3,79.98,133.3c46.71,0,76.1-34.75,88.18-104.25Z"/>
      <path class="cls-9" d="m2898.96,3685.82h-266.94v-113.82h41.02v-247.8h-54.69v86.47h-89.21v-200.29h471.34v200.29h-89.21v-86.47h-54.35v247.8h42.04v113.82Z"/>
      <path class="cls-9" d="m3334.75,3685.82h-288.82v-113.82h49.9v-247.8h-51.61v-113.82h468.26v156.54h-126.46v-42.72h-106.3v73.14h82.03v96.73h-82.03v77.93h55.03v113.82Z"/>
    </g>
  </g>
</svg>